<svg width="141" height="23" viewBox="0 0 141 23" fill="none" xmlns="http://www.w3.org/2000/svg">
<path d="M8.48438 17.9297C6.89844 17.9297 5.46289 17.5859 4.17773 16.8984C2.89258 16.2109 1.875 15.2012 1.125 13.8691C0.375 12.5371 0 10.9062 0 8.97656C0 7.03125 0.375 5.39062 1.125 4.05469C1.875 2.71875 2.89258 1.70898 4.17773 1.02539C5.46289 0.341797 6.89844 0 8.48438 0C10.0703 0 11.5039 0.341797 12.7852 1.02539C14.0664 1.70898 15.084 2.71875 15.8379 4.05469C16.5918 5.39062 16.9688 7.03125 16.9688 8.97656C16.9688 10.9141 16.5918 12.5488 15.8379 13.8809C15.084 15.2129 14.0664 16.2207 12.7852 16.9043C11.5039 17.5879 10.0703 17.9297 8.48438 17.9297ZM8.48438 13.8047C9.27344 13.8047 9.93555 13.6191 10.4707 13.248C11.0059 12.877 11.4102 12.332 11.6836 11.6133C11.957 10.8945 12.0938 10.0156 12.0938 8.97656C12.0938 7.92969 11.957 7.04492 11.6836 6.32227C11.4102 5.59961 11.0059 5.05273 10.4707 4.68164C9.93555 4.31055 9.27344 4.125 8.48438 4.125C7.70312 4.125 7.04492 4.31055 6.50977 4.68164C5.97461 5.05273 5.56836 5.59961 5.29102 6.32227C5.01367 7.04492 4.875 7.92969 4.875 8.97656C4.875 10.0156 5.01367 10.8945 5.29102 11.6133C5.56836 12.332 5.97461 12.877 6.50977 13.248C7.04492 13.6191 7.70312 13.8047 8.48438 13.8047ZM23.6953 10.3359V17.6953H18.9844V4.59375H23.4023L23.4961 7.94531H23.3555C23.6523 6.95312 24.1348 6.11914 24.8027 5.44336C25.4707 4.76758 26.4062 4.42969 27.6094 4.42969C28.5391 4.42969 29.3457 4.64062 30.0293 5.0625C30.7129 5.48438 31.2422 6.06641 31.6172 6.80859C31.9922 7.55078 32.1797 8.39844 32.1797 9.35156V17.6953H27.4688V10.3359C27.4688 9.6875 27.3047 9.17773 26.9766 8.80664C26.6484 8.43555 26.1875 8.25 25.5938 8.25C25.2109 8.25 24.877 8.33398 24.5918 8.50195C24.3066 8.66992 24.0859 8.9082 23.9297 9.2168C23.7734 9.52539 23.6953 9.89844 23.6953 10.3359ZM38.2266 17.9062C37.3906 17.9062 36.6504 17.7676 36.0059 17.4902C35.3613 17.2129 34.8594 16.793 34.5 16.2305C34.1406 15.668 33.9609 14.9531 33.9609 14.0859C33.9609 13.3672 34.082 12.7539 34.3242 12.2461C34.5664 11.7383 34.9062 11.3223 35.3438 10.998C35.7812 10.6738 36.291 10.4238 36.873 10.248C37.4551 10.0723 38.0859 9.96094 38.7656 9.91406C39.5 9.85938 40.0879 9.79297 40.5293 9.71484C40.9707 9.63672 41.291 9.52148 41.4902 9.36914C41.6895 9.2168 41.7891 9.01562 41.7891 8.76562V8.71875C41.7891 8.49219 41.7285 8.30078 41.6074 8.14453C41.4863 7.98828 41.3164 7.86914 41.0977 7.78711C40.8789 7.70508 40.6172 7.66406 40.3125 7.66406C40.0156 7.66406 39.7461 7.70703 39.5039 7.79297C39.2617 7.87891 39.0605 8.00781 38.9004 8.17969C38.7402 8.35156 38.6328 8.57031 38.5781 8.83594L34.3359 8.41406C34.4609 7.67969 34.7656 7.01172 35.25 6.41016C35.7344 5.80859 36.4043 5.32812 37.2598 4.96875C38.1152 4.60938 39.1562 4.42969 40.3828 4.42969C41.3125 4.42969 42.1543 4.53906 42.9082 4.75781C43.6621 4.97656 44.3066 5.28125 44.8418 5.67188C45.377 6.0625 45.7871 6.51758 46.0723 7.03711C46.3574 7.55664 46.5 8.11719 46.5 8.71875V17.6953H42.0938V15.8438H42C41.7344 16.3359 41.416 16.7324 41.0449 17.0332C40.6738 17.334 40.2539 17.5547 39.7852 17.6953C39.3164 17.8359 38.7969 17.9062 38.2266 17.9062ZM39.75 14.9297C40.1094 14.9297 40.4473 14.8555 40.7637 14.707C41.0801 14.5586 41.3379 14.3457 41.5371 14.0684C41.7363 13.791 41.8359 13.4531 41.8359 13.0547V11.9766C41.7109 12.0234 41.5781 12.0703 41.4375 12.1172C41.2969 12.1641 41.1465 12.207 40.9863 12.2461C40.8262 12.2852 40.6621 12.3203 40.4941 12.3516C40.3262 12.3828 40.1484 12.4141 39.9609 12.4453C39.5938 12.5 39.2949 12.5918 39.0645 12.7207C38.834 12.8496 38.6641 13.0059 38.5547 13.1895C38.4453 13.373 38.3906 13.5781 38.3906 13.8047C38.3906 14.0469 38.4492 14.252 38.5664 14.4199C38.6836 14.5879 38.8438 14.7148 39.0469 14.8008C39.25 14.8867 39.4844 14.9297 39.75 14.9297ZM48.8203 17.6953V0.234375H56.3438C57.6406 0.234375 58.7754 0.470703 59.748 0.943359C60.7207 1.41602 61.4785 2.0957 62.0215 2.98242C62.5645 3.86914 62.8359 4.92969 62.8359 6.16406C62.8359 7.41406 62.5586 8.46875 62.0039 9.32812C61.4492 10.1875 60.6719 10.8359 59.6719 11.2734C58.6719 11.7109 57.5078 11.9297 56.1797 11.9297H51.6797V8.25H55.2188C55.7812 8.25 56.2617 8.17969 56.6602 8.03906C57.0586 7.89844 57.3633 7.67578 57.5742 7.37109C57.7852 7.06641 57.8906 6.66406 57.8906 6.16406C57.8906 5.66406 57.7852 5.25781 57.5742 4.94531C57.3633 4.63281 57.0586 4.40234 56.6602 4.25391C56.2617 4.10547 55.7812 4.03125 55.2188 4.03125H53.5547V17.6953H48.8203ZM58.2656 17.6953L54 9.67969H59.0391L63.4219 17.6953H58.2656ZM70.9688 17.9297C69.5703 17.9297 68.3652 17.6621 67.3535 17.127C66.3418 16.5918 65.5664 15.8203 65.0273 14.8125C64.4883 13.8047 64.2188 12.5938 64.2188 11.1797C64.2188 9.82812 64.4902 8.64648 65.0332 7.63477C65.5762 6.62305 66.3438 5.83594 67.3359 5.27344C68.3281 4.71094 69.5 4.42969 70.8516 4.42969C71.8438 4.42969 72.7402 4.58398 73.541 4.89258C74.3418 5.20117 75.0273 5.64648 75.5977 6.22852C76.168 6.81055 76.6055 7.51562 76.9102 8.34375C77.2148 9.17188 77.3672 10.1094 77.3672 11.1562V12.2344H65.6719V9.65625H75.1641L72.9609 10.1953C72.9609 9.66406 72.8828 9.2168 72.7266 8.85352C72.5703 8.49023 72.3398 8.21289 72.0352 8.02148C71.7305 7.83008 71.3516 7.73438 70.8984 7.73438C70.4453 7.73438 70.0664 7.83008 69.7617 8.02148C69.457 8.21289 69.2266 8.49023 69.0703 8.85352C68.9141 9.2168 68.8359 9.66406 68.8359 10.1953V12.0703C68.8359 12.6484 68.9277 13.127 69.1113 13.5059C69.2949 13.8848 69.5547 14.166 69.8906 14.3496C70.2266 14.5332 70.6172 14.625 71.0625 14.625C71.3828 14.625 71.6738 14.5801 71.9355 14.4902C72.1973 14.4004 72.4219 14.2715 72.6094 14.1035C72.7969 13.9355 72.9375 13.7305 73.0312 13.4883L77.1797 14.0977C76.9609 14.8789 76.5742 15.5566 76.0195 16.1309C75.4648 16.7051 74.7637 17.1484 73.916 17.4609C73.0684 17.7734 72.0859 17.9297 70.9688 17.9297ZM86.9062 4.59375V8.01562H78.2812V4.59375H86.9062ZM79.9453 1.47656H84.6562V13.4883C84.6562 13.7617 84.7266 13.9668 84.8672 14.1035C85.0078 14.2402 85.2344 14.3086 85.5469 14.3086C85.6875 14.3086 85.8926 14.291 86.1621 14.2559C86.4316 14.2207 86.6094 14.1875 86.6953 14.1562L87.2578 17.5195C86.7188 17.668 86.2109 17.7676 85.7344 17.8184C85.2578 17.8691 84.8086 17.8945 84.3867 17.8945C82.918 17.8945 81.8105 17.5586 81.0645 16.8867C80.3184 16.2148 79.9453 15.2266 79.9453 13.9219V1.47656ZM94.5469 17.9297C93.3594 17.9297 92.3105 17.7617 91.4004 17.4258C90.4902 17.0898 89.752 16.6113 89.1855 15.9902C88.6191 15.3691 88.2617 14.6289 88.1133 13.7695L92.4727 13.1367C92.6289 13.6523 92.8828 14.0488 93.2344 14.3262C93.5859 14.6035 94.0938 14.7422 94.7578 14.7422C95.2188 14.7422 95.5781 14.6719 95.8359 14.5312C96.0938 14.3906 96.2227 14.1875 96.2227 13.9219C96.2227 13.6719 96.1016 13.4727 95.8594 13.3242C95.6172 13.1758 95.2383 13.0547 94.7227 12.9609L92.4023 12.5391C91.0742 12.2969 90.0781 11.8535 89.4141 11.209C88.75 10.5645 88.418 9.72656 88.418 8.69531C88.418 7.78125 88.6621 7.00781 89.1504 6.375C89.6387 5.74219 90.334 5.25977 91.2363 4.92773C92.1387 4.5957 93.2148 4.42969 94.4648 4.42969C95.6211 4.42969 96.6328 4.58008 97.5 4.88086C98.3672 5.18164 99.0645 5.61328 99.5918 6.17578C100.119 6.73828 100.449 7.41797 100.582 8.21484L96.4336 8.8125C96.332 8.38281 96.1094 8.06836 95.7656 7.86914C95.4219 7.66992 95.0195 7.57031 94.5586 7.57031C94.1523 7.57031 93.8086 7.64258 93.5273 7.78711C93.2461 7.93164 93.1055 8.14062 93.1055 8.41406C93.1055 8.60938 93.1895 8.79297 93.3574 8.96484C93.5254 9.13672 93.8555 9.26562 94.3477 9.35156L97.0195 9.82031C98.3555 10.0547 99.3535 10.4609 100.014 11.0391C100.674 11.6172 101.004 12.3906 101.004 13.3594C101.004 14.2969 100.725 15.1074 100.166 15.791C99.6074 16.4746 98.8438 17.002 97.875 17.373C96.9062 17.7441 95.7969 17.9297 94.5469 17.9297ZM109.09 17.9297C107.691 17.9297 106.486 17.6621 105.475 17.127C104.463 16.5918 103.688 15.8203 103.148 14.8125C102.609 13.8047 102.34 12.5938 102.34 11.1797C102.34 9.82812 102.611 8.64648 103.154 7.63477C103.697 6.62305 104.465 5.83594 105.457 5.27344C106.449 4.71094 107.621 4.42969 108.973 4.42969C109.965 4.42969 110.861 4.58398 111.662 4.89258C112.463 5.20117 113.148 5.64648 113.719 6.22852C114.289 6.81055 114.727 7.51562 115.031 8.34375C115.336 9.17188 115.488 10.1094 115.488 11.1562V12.2344H103.793V9.65625H113.285L111.082 10.1953C111.082 9.66406 111.004 9.2168 110.848 8.85352C110.691 8.49023 110.461 8.21289 110.156 8.02148C109.852 7.83008 109.473 7.73438 109.02 7.73438C108.566 7.73438 108.188 7.83008 107.883 8.02148C107.578 8.21289 107.348 8.49023 107.191 8.85352C107.035 9.2168 106.957 9.66406 106.957 10.1953V12.0703C106.957 12.6484 107.049 13.127 107.232 13.5059C107.416 13.8848 107.676 14.166 108.012 14.3496C108.348 14.5332 108.738 14.625 109.184 14.625C109.504 14.625 109.795 14.5801 110.057 14.4902C110.318 14.4004 110.543 14.2715 110.73 14.1035C110.918 13.9355 111.059 13.7305 111.152 13.4883L115.301 14.0977C115.082 14.8789 114.695 15.5566 114.141 16.1309C113.586 16.7051 112.885 17.1484 112.037 17.4609C111.189 17.7734 110.207 17.9297 109.09 17.9297ZM117.363 22.5938V4.59375H122.027V6.89062H122.145C122.316 6.44531 122.566 6.03516 122.895 5.66016C123.223 5.28516 123.631 4.98633 124.119 4.76367C124.607 4.54102 125.176 4.42969 125.824 4.42969C126.691 4.42969 127.514 4.66016 128.291 5.12109C129.068 5.58203 129.703 6.30664 130.195 7.29492C130.688 8.2832 130.934 9.57031 130.934 11.1562C130.934 12.6641 130.699 13.9141 130.23 14.9062C129.762 15.8984 129.137 16.6387 128.355 17.127C127.574 17.6152 126.715 17.8594 125.777 17.8594C125.168 17.8594 124.623 17.7578 124.143 17.5547C123.662 17.3516 123.254 17.0762 122.918 16.7285C122.582 16.3809 122.324 15.9844 122.145 15.5391H122.074V22.5938H117.363ZM124.043 14.25C124.48 14.25 124.85 14.127 125.15 13.8809C125.451 13.6348 125.682 13.2793 125.842 12.8145C126.002 12.3496 126.082 11.7969 126.082 11.1562C126.082 10.5078 126.002 9.95117 125.842 9.48633C125.682 9.02148 125.451 8.66406 125.15 8.41406C124.85 8.16406 124.48 8.03906 124.043 8.03906C123.613 8.03906 123.242 8.16406 122.93 8.41406C122.617 8.66406 122.377 9.02148 122.209 9.48633C122.041 9.95117 121.957 10.5078 121.957 11.1562C121.957 11.7891 122.041 12.3359 122.209 12.7969C122.377 13.2578 122.617 13.6152 122.93 13.8691C123.242 14.123 123.613 14.25 124.043 14.25ZM140.52 4.59375V8.01562H131.895V4.59375H140.52ZM133.559 1.47656H138.27V13.4883C138.27 13.7617 138.34 13.9668 138.48 14.1035C138.621 14.2402 138.848 14.3086 139.16 14.3086C139.301 14.3086 139.506 14.291 139.775 14.2559C140.045 14.2207 140.223 14.1875 140.309 14.1562L140.871 17.5195C140.332 17.668 139.824 17.7676 139.348 17.8184C138.871 17.8691 138.422 17.8945 138 17.8945C136.531 17.8945 135.424 17.5586 134.678 16.8867C133.932 16.2148 133.559 15.2266 133.559 13.9219V1.47656Z" fill="#92400E"/>
</svg>
